HIERARCHY
ROOT Hips
{
	OFFSET 0.00000 0.00000 0.00000
	CHANNELS 6 Xposition Yposition Zposition Zrotation Yrotation Xrotation 
	JOINT LHipJoint
	{
		OFFSET 0 0 0
		CHANNELS 3 Zrotation Yrotation Xrotation
		JOINT LeftHip
		{
			OFFSET 1.37590 -1.78394 0.89329
			CHANNELS 3 Zrotation Yrotation Xrotation
			JOINT LeftKnee
			{
				OFFSET 2.47928 -6.81178 0.00000
				CHANNELS 3 Zrotation Yrotation Xrotation
				JOINT LeftAnkle
				{
					OFFSET 2.63345 -7.23535 0.00000
					CHANNELS 3 Zrotation Yrotation Xrotation
					JOINT LeftToe
					{
						OFFSET 0.23938 -0.65768 2.27012
						CHANNELS 3 Zrotation Yrotation Xrotation
						End Site
						{
							OFFSET 0.00000 -0.00000 1.18363
						}
					}
				}
			}
		}
	}
	JOINT RHipJoint
	{
		OFFSET 0 0 0
		CHANNELS 3 Zrotation Yrotation Xrotation
		JOINT RightHip
		{
			OFFSET -1.33617 -1.78394 0.89329
			CHANNELS 3 Zrotation Yrotation Xrotation
			JOINT RightKnee
			{
				OFFSET -2.56922 -7.05888 0.00000
				CHANNELS 3 Zrotation Yrotation Xrotation
				JOINT RightAnkle
				{
					OFFSET -2.56568 -7.04915 0.00000
					CHANNELS 3 Zrotation Yrotation Xrotation
					JOINT RightToe
					{
						OFFSET -0.27533 -0.75646 2.18105
						CHANNELS 3 Zrotation Yrotation Xrotation
						End Site
						{
							OFFSET -0.00000 -0.00000 1.15233
						}
					}
				}
			}
		}
	}
	JOINT lowerback
	{
		OFFSET 0 0 0
		CHANNELS 3 Zrotation Yrotation Xrotation
		JOINT Chest
		{
			OFFSET 0.06190 2.15152 -0.00935
			CHANNELS 3 Zrotation Yrotation Xrotation
			JOINT Chest2
			{
				OFFSET 0.06334 2.15332 0.00872
				CHANNELS 3 Zrotation Yrotation Xrotation
				JOINT lowerneck
				{
					OFFSET 0 0 0
					CHANNELS 3 Zrotation Yrotation Xrotation
					JOINT Neck
					{
						OFFSET -0.04202 1.66908 0.23524
						CHANNELS 3 Zrotation Yrotation Xrotation
						JOINT Head
						{
							OFFSET 0.07510 1.69357 -0.24440
							CHANNELS 3 Zrotation Yrotation Xrotation
							End Site
							{
								OFFSET 0.02556 1.71719 -0.11000
							}
						}
					}
				}
				JOINT LeftCollar
				{
					OFFSET 0 0 0
					CHANNELS 3 Zrotation Yrotation Xrotation
					JOINT LeftShoulder
					{
						OFFSET 3.67168 1.26306 -0.41342
CHANNELS 3 Zrotation Xrotation Yrotation
						JOINT LeftElbow
						{
OFFSET 0 -4.685100 -0.000000
CHANNELS 3 Zrotation Xrotation Yrotation
							JOINT LeftWrist
							{
OFFSET 0 -3.396260 -0.000000
CHANNELS 3 Zrotation Xrotation Yrotation
								JOINT lhand
								{
									OFFSET 0 0 0
CHANNELS 3 Zrotation Xrotation Yrotation
									JOINT LFingers
									{
OFFSET 0 -0.486080 -0.000000
CHANNELS 3 Zrotation Xrotation Yrotation
										End Site
										{
OFFSET 0 -0.391890 -0.000000
										}
									}
								}
								JOINT LThumb
								{
OFFSET 0 0.000000 0.000000
CHANNELS 3 Zrotation Xrotation Yrotation
									End Site
									{
OFFSET 0 -0.397870 0.397870
									}
								}
							}
						}
					}
				}
				JOINT RightCollar
				{
					OFFSET 0 0 0
					CHANNELS 3 Zrotation Yrotation Xrotation
					JOINT RightShoulder
					{
						OFFSET -3.04136 1.42992 -0.76390
CHANNELS 3 Zrotation Xrotation Yrotation
						JOINT RightElbow
						{
OFFSET 0 -5.555760 -0.000000
CHANNELS 3 Zrotation Xrotation Yrotation
							JOINT RightWrist
							{
OFFSET 0 -3.327740 -0.000000
CHANNELS 3 Zrotation Xrotation Yrotation
								JOINT rhand
								{
									OFFSET 0 0 0
CHANNELS 3 Zrotation Xrotation Yrotation
									JOINT RFingers
									{
OFFSET 0 -0.507630 -0.000000
CHANNELS 3 Zrotation Xrotation Yrotation
										End Site
										{
OFFSET 0 -0.409260 -0.000000
										}
									}
								}
								JOINT RThumb
								{
OFFSET 0 0.000000 0.000000
CHANNELS 3 Zrotation Xrotation Yrotation
									End Site
									{
OFFSET 0 -0.415510 0.415510
									}
								}
							}
						}
					}
				}
			}
		}
	}
}
MOTION
Frames: 6
Frame Time: 0.008333333333333333
2.193659 18.114895 -0.351492 -28.239929 -70.022997 33.783285 0.000000 0.000000 0.000000 -4.172734 -13.505100 -26.514176 6.436940 14.838673 46.710720 -0.016371 -5.532191 -3.358090 0.940279 -6.176053 -17.296202 0.000000 0.000000 0.000000 27.896621 3.574210 -10.756636 -1.089044 -6.632151 18.630117 0.357567 -13.554607 -14.096924 -0.172359 -2.674264 7.373151 13.054036 3.149281 3.085829 10.720303 4.927718 -3.691253 3.796024 1.920861 -5.566509 -6.593229 -6.598525 -17.206214 0.329909 -7.428826 14.311548 0.307368 -3.895257 7.484756 0.000000 0.000000 0.000000 11.434084 -15.467290 -27.131086 27.801978 -38.933179 9.999016 8.942125 13.398038 -22.983563 0.000000 0.000000 0.000000 -7.125000 0.000000 0.000000 -20.448485 52.045936 3.673927 0.000000 0.000000 0.000000 -8.109165 -60.056000 -5.870465 -26.068196 -37.275732 -8.929030 -19.378471 2.001062 43.563388 0.000000 0.000000 0.000000 7.125000 0.000000 0.000000 31.166882 73.197733 -21.368946
2.045132 18.118795 -0.342671 -28.222675 -69.768121 33.848313 0.000000 0.000000 0.000000 -3.886679 -13.626136 -26.983738 6.118785 14.541961 45.455606 0.018086 -4.935043 -4.040156 0.905550 -6.063955 -16.970244 0.000000 0.000000 0.000000 28.181177 3.436439 -10.268664 -1.074374 -6.588828 18.502850 0.343593 -13.533822 -14.311433 -0.145552 -2.458133 6.773618 13.070790 3.290501 3.057168 10.552425 5.116183 -3.693067 3.592227 2.015331 -5.528427 -6.753171 -6.795579 -17.177194 0.610895 -7.705258 14.124520 0.394075 -4.006002 7.445018 0.000000 0.000000 0.000000 11.403601 -14.647036 -27.211165 28.320148 -39.408955 10.326401 8.948300 13.350351 -22.749736 0.000000 0.000000 0.000000 -7.125000 0.000000 0.000000 -20.322573 51.827733 3.538154 0.000000 0.000000 0.000000 -8.284831 -59.914407 -5.366488 -25.235910 -36.443638 -8.429846 -18.792618 0.933169 42.882489 0.000000 0.000000 0.000000 7.125000 0.000000 0.000000 30.403614 72.448858 -20.342734
1.895933 18.121375 -0.332310 -28.180438 -69.528155 33.892143 0.000000 0.000000 0.000000 -3.628016 -13.739009 -27.405076 5.784644 14.215406 44.109295 0.048093 -4.379884 -4.644280 0.866980 -5.936736 -16.601061 0.000000 0.000000 0.000000 28.444049 3.301498 -9.797885 -1.063273 -6.555633 18.405486 0.329510 -13.511695 -14.521053 -0.119870 -2.230815 6.144045 13.065383 3.423750 3.021179 10.380465 5.290482 -3.689248 3.398013 2.104604 -5.480389 -6.904304 -6.976596 -17.144543 0.887204 -7.960885 13.932924 0.480430 -4.106993 7.403141 0.000000 0.000000 0.000000 11.366153 -13.795814 -27.244524 28.824522 -39.863849 10.648175 8.968444 13.318096 -22.552591 0.000000 0.000000 0.000000 -7.125000 0.000000 0.000000 -20.203464 51.645994 3.423518 0.000000 0.000000 0.000000 -8.414143 -59.664432 -4.750022 -24.559490 -35.749835 -8.031374 -18.300815 -0.029887 42.247194 0.000000 0.000000 0.000000 7.125000 0.000000 0.000000 29.711750 71.765724 -19.426685
1.745981 18.122635 -0.320391 -28.114662 -69.301252 33.914522 0.000000 0.000000 0.000000 -3.395183 -13.844558 -27.778176 5.440303 13.861836 42.689252 0.073171 -3.865124 -5.155714 0.827514 -5.803515 -16.215435 0.000000 0.000000 0.000000 28.686596 3.167403 -9.346476 -1.056204 -6.534547 18.343646 0.315404 -13.489645 -14.726256 -0.095561 -1.991673 5.482624 13.038636 3.548515 2.980015 10.205416 5.450686 -3.680461 3.213586 2.188417 -5.424645 -7.047988 -7.141805 -17.108244 1.159594 -8.195696 13.738080 0.566886 -4.198558 7.359545 0.000000 0.000000 0.000000 11.318739 -12.916222 -27.231719 29.307764 -40.292170 10.959328 9.006498 13.303680 -22.387439 0.000000 0.000000 0.000000 -7.125000 0.000000 0.000000 -20.084506 51.497014 3.326652 0.000000 0.000000 0.000000 -8.495563 -59.305206 -4.024229 -24.028094 -35.193465 -7.722880 -17.881323 -0.890509 41.656954 0.000000 0.000000 0.000000 7.125000 0.000000 0.000000 29.091500 71.140589 -18.611670
1.595301 18.122552 -0.306845 -28.028977 -69.084270 33.917005 0.000000 0.000000 0.000000 -3.184663 -13.943729 -28.104429 5.091630 13.484564 41.213773 0.092858 -3.384348 -5.561837 0.788481 -5.668067 -15.824340 0.000000 0.000000 0.000000 28.912029 3.033922 -8.915551 -1.053670 -6.527089 18.321676 0.301783 -13.471893 -14.927106 -0.072992 -1.740294 4.788605 12.992193 3.664239 2.934140 10.028589 5.596261 -3.666591 3.039748 2.266444 -5.361796 -7.182921 -7.291482 -17.067957 1.425564 -8.410221 13.540334 0.652333 -4.280927 7.313858 0.000000 0.000000 0.000000 11.259487 -12.011703 -27.174070 29.762888 -40.688887 11.254875 9.064085 13.310071 -22.252916 0.000000 0.000000 0.000000 -7.125000 0.000000 0.000000 -19.963109 51.379915 3.246287 0.000000 0.000000 0.000000 -8.524058 -58.837554 -3.192735 -23.629119 -34.769318 -7.494090 -17.525031 -1.647360 41.115224 0.000000 0.000000 0.000000 7.125000 0.000000 0.000000 28.539531 70.573974 -17.891784
1.443714 18.121039 -0.291730 -27.924589 -68.876667 33.899329 0.000000 0.000000 0.000000 -2.996422 -14.037234 -28.384229 4.743867 13.087326 39.699795 0.107237 -2.942467 -5.865236 0.749283 -5.528553 -15.422503 0.000000 0.000000 0.000000 29.121317 2.900965 -8.505530 -1.056335 -6.534979 18.344733 0.288822 -13.460192 -15.124215 -0.052624 -1.476346 4.060674 12.925810 3.771217 2.883341 9.851075 5.727616 -3.647357 2.877683 2.338887 -5.291905 -7.310429 -7.426087 -17.023215 1.685895 -8.604807 13.340084 0.737230 -4.354302 7.266191 0.000000 0.000000 0.000000 11.184199 -11.087246 -27.071259 30.181485 -41.048059 11.528802 9.138837 13.340777 -22.141991 0.000000 0.000000 0.000000 -7.125000 0.000000 0.000000 -19.837610 51.287680 3.178381 0.000000 0.000000 0.000000 -8.505795 -58.263159 -2.269463 -23.353853 -34.473394 -7.337635 -17.215546 -2.298924 40.616642 0.000000 0.000000 0.000000 7.125000 0.000000 0.000000 28.050124 70.056447 -17.253877
